<svg width="48" height="52" viewBox="0 0 48 52" fill="none" xmlns="http://www.w3.org/2000/svg">
	<path d="M47.3783 32.1338L42.5274 29.3329C42.9204 27.1274 42.9204 24.8698 42.5274 22.6643L47.3785 19.8635C47.6237 19.7219 47.8132 19.5009 47.9157 19.2369C48.0182 18.9729 48.0275 18.6819 47.9421 18.4119C46.8357 14.9415 44.9915 11.7514 42.5362 9.06077C42.3452 8.8518 42.0885 8.71433 41.8086 8.67111C41.5288 8.62789 41.2426 8.68152 40.9973 8.82312L36.1481 11.6228C34.4364 10.1783 32.4821 9.04848 30.3761 8.28593V2.68678C30.376 2.40335 30.2792 2.12843 30.1015 1.90761C29.9238 1.68678 29.676 1.53331 29.3992 1.47264C25.8415 0.697598 22.1587 0.697598 18.601 1.47264C18.3242 1.53333 18.0764 1.6868 17.8987 1.90763C17.721 2.12845 17.6242 2.40336 17.6241 2.68678V8.28583C15.5182 9.04836 13.5641 10.1782 11.8526 11.6228L7.00246 8.82292C6.75723 8.68133 6.471 8.62772 6.19115 8.67098C5.9113 8.71423 5.65461 8.85175 5.46357 9.06077C3.00864 11.7516 1.16473 14.9415 0.0583293 18.4118C-0.0271103 18.6818 -0.0178199 18.9728 0.0846634 19.2368C0.187147 19.5008 0.37668 19.7218 0.621903 19.8634L5.4724 22.6642C5.07916 24.8698 5.07916 27.1275 5.4724 29.333L0.621511 32.1338C0.376288 32.2754 0.186754 32.4965 0.0842711 32.7605C-0.0182122 33.0244 -0.0275026 33.3155 0.057937 33.5854C1.16434 37.0559 3.00847 40.2458 5.46377 42.9365C5.65485 43.1454 5.91152 43.2828 6.19132 43.326C6.47112 43.3692 6.75728 43.3156 7.00246 43.174L11.8517 40.3743C13.5634 41.819 15.5177 42.9488 17.6238 43.7112V49.3102C17.6238 49.5936 17.7206 49.8685 17.8983 50.0894C18.076 50.3102 18.3238 50.4637 18.6006 50.5244C22.1579 51.3032 25.8415 51.3032 29.3988 50.5244C29.6756 50.4637 29.9234 50.3102 30.1011 50.0894C30.2788 49.8685 30.3757 49.5936 30.3757 49.3102V43.7114C32.4816 42.9489 34.4357 41.8191 36.1472 40.3743L40.9973 43.174C41.2426 43.3156 41.5288 43.3692 41.8087 43.326C42.0885 43.2828 42.3452 43.1453 42.5363 42.9363C44.9915 40.2456 46.8356 37.0556 47.9421 33.5852C48.0275 33.3153 48.0181 33.0243 47.9156 32.7603C47.8131 32.4964 47.6235 32.2754 47.3783 32.1338ZM23.9999 36.7258C21.8783 36.7258 19.8043 36.0967 18.0402 34.9179C16.2761 33.7392 14.9012 32.0638 14.0892 30.1037C13.2773 28.1436 13.0649 25.9867 13.4788 23.9058C13.8927 21.8249 14.9144 19.9135 16.4146 18.4133C17.9148 16.9131 19.8263 15.8914 21.9071 15.4775C23.988 15.0636 26.1449 15.276 28.105 16.0879C30.0652 16.8998 31.7405 18.2748 32.9193 20.0389C34.098 21.8029 34.7271 23.8769 34.7271 25.9986C34.7239 28.8426 33.5927 31.5693 31.5817 33.5803C29.5706 35.5914 26.844 36.7226 23.9999 36.7258ZM32.241 25.9986C32.241 27.6285 31.7577 29.2218 30.8521 30.5771C29.9466 31.9323 28.6595 32.9886 27.1537 33.6124C25.6478 34.2362 23.9908 34.3994 22.3922 34.0814C20.7936 33.7634 19.3252 32.9785 18.1726 31.826C17.0201 30.6735 16.2352 29.2051 15.9172 27.6065C15.5992 26.0079 15.7624 24.3508 16.3861 22.845C17.0099 21.3391 18.0662 20.052 19.4214 19.1465C20.7766 18.2409 22.37 17.7576 23.9999 17.7576C26.1848 17.7601 28.2795 18.6291 29.8245 20.174C31.3695 21.719 32.2385 23.8137 32.241 25.9986Z" fill="url(#paint0_linear_583_4021)" />
	<defs>
		<linearGradient id="paint0_linear_583_4021" x1="-11.4495" y1="-8.81729" x2="88.1611" y2="29.8797" gradientUnits="userSpaceOnUse">
			<stop stop-color="#F96C7F" />
			<stop offset="1" stop-color="#B42A3D" />
		</linearGradient>
	</defs>
</svg>
