<svg width="40" height="40" viewBox="0 0 40 40" fill="none" xmlns="http://www.w3.org/2000/svg">
	<g clip-path="url(#clip0_90_403)">
		<path opacity="0.72" d="M39.9359 18.352C39.9163 18.1524 39.8239 17.9671 39.6764 17.8314C39.5288 17.6956 39.3364 17.6189 39.1359 17.616H19.2C18.6586 17.6292 18.1301 17.7838 17.667 18.0645C17.2039 18.3452 16.8222 18.7422 16.56 19.216C16.3172 19.6397 16.1895 20.1196 16.1895 20.608C16.1895 21.0963 16.3172 21.5762 16.56 22C16.6293 22.1332 16.7321 22.2461 16.8584 22.3275C16.9847 22.4088 17.1299 22.4559 17.2799 22.464H39.184C39.3845 22.461 39.5769 22.3843 39.7244 22.2486C39.872 22.1128 39.9643 21.9275 39.984 21.728C39.984 21.104 39.984 20.576 39.984 20.128C39.984 19.68 39.9839 18.96 39.9359 18.352Z" fill="url(#paint0_linear_90_403)" />
		<path d="M39.9198 18.352C39.904 18.1538 39.815 17.9687 39.67 17.8326C39.5251 17.6965 39.3346 17.6193 39.1358 17.616H35.9358C35.8236 17.6172 35.7128 17.6421 35.6108 17.689C35.5088 17.7358 35.4179 17.8036 35.3438 17.888C35.2693 17.9691 35.2134 18.0655 35.1802 18.1706C35.147 18.2757 35.1374 18.3867 35.1519 18.496C35.1519 19.008 35.1519 19.52 35.1519 20.096C35.1478 22.6491 34.5008 25.1601 33.2704 27.3971C32.04 29.6342 30.2658 31.5253 28.1118 32.896C27.8878 33.04 27.6799 33.216 27.4399 33.344C26.2658 34.0126 25.0062 34.5186 23.6958 34.848L25.7919 38.576C25.863 38.6992 25.9658 38.8013 26.0896 38.8716C26.2133 38.9419 26.3535 38.9779 26.4958 38.976C26.5804 38.9913 26.6672 38.9913 26.7519 38.976L27.2638 38.768L27.7278 38.576C28.4356 38.282 29.1249 37.9454 29.7919 37.568C32.9114 35.8107 35.5034 33.2501 37.2985 30.1522C39.0937 27.0544 40.0265 23.5323 39.9999 19.952C39.9999 19.36 39.9678 18.896 39.9198 18.352Z" fill="url(#paint1_linear_90_403)" />
		<path d="M28.5946 33.5387C28.4871 33.3562 28.3162 33.2195 28.1146 33.1547H27.8905C27.7516 33.1558 27.6148 33.1886 27.4905 33.2507C25.209 34.5489 22.6276 35.2274 20.0026 35.2187C15.9739 35.2102 12.1127 33.6061 9.26396 30.7574C6.41524 27.9086 4.81109 24.0474 4.80264 20.0187C4.81109 15.99 6.41524 12.1287 9.26396 9.27999C12.1127 6.43126 15.9739 4.82713 20.0026 4.81867C22.6264 4.81951 25.2054 5.49735 27.4905 6.78666C27.61 6.86248 27.7491 6.90144 27.8905 6.89866H28.0665C28.1762 6.87445 28.2798 6.82785 28.3706 6.76177C28.4615 6.6957 28.5378 6.61157 28.5946 6.51467L30.1946 3.73067C30.3004 3.54551 30.3295 3.3263 30.2757 3.11997C30.2219 2.91363 30.0893 2.73657 29.9065 2.62667C26.8949 0.924775 23.4939 0.0317974 20.0347 0.0346749C14.7329 0.0431374 9.65075 2.15299 5.90186 5.90189C2.15296 9.65078 0.0431304 14.7329 0.034668 20.0347C0.0431304 25.3364 2.15296 30.4186 5.90186 34.1675C9.65075 37.9164 14.7329 40.0262 20.0347 40.0347C23.4939 40.0375 26.8949 39.1446 29.9065 37.4427C29.9981 37.3913 30.0784 37.3221 30.1427 37.2391C30.207 37.1561 30.2539 37.0611 30.2808 36.9596C30.3076 36.8581 30.3139 36.7523 30.2991 36.6484C30.2843 36.5445 30.2488 36.4446 30.1946 36.3547L28.5946 33.5387Z" fill="url(#paint2_linear_90_403)" />
		<path opacity="0.56" d="M22.2878 22.4H17.2319C17.0885 22.3898 16.9496 22.3452 16.8271 22.27C16.7045 22.1948 16.6019 22.0912 16.5278 21.968L25.8239 38.432C25.8951 38.5553 25.9978 38.6573 26.1216 38.7277C26.2453 38.798 26.3855 38.834 26.5278 38.832C26.6179 38.8472 26.7099 38.8472 26.7999 38.832C27.8571 38.4514 28.8796 37.9803 29.856 37.424C29.9475 37.3726 30.0276 37.3034 30.0919 37.2204C30.1562 37.1375 30.2031 37.0424 30.23 36.9409C30.2568 36.8395 30.2631 36.7336 30.2483 36.6297C30.2335 36.5258 30.198 36.4259 30.1438 36.336L22.2878 22.4Z" fill="url(#paint3_linear_90_403)" />
	</g>
	<defs>
		<linearGradient id="paint0_linear_90_403" x1="10.5137" y1="16.6787" x2="21.9274" y2="39.4467" gradientUnits="userSpaceOnUse">
			<stop stop-color="#F96C7F" />
			<stop offset="1" stop-color="#B42A3D" />
		</linearGradient>
		<linearGradient id="paint1_linear_90_403" x1="19.8066" y1="13.4841" x2="55.3332" y2="24.4999" gradientUnits="userSpaceOnUse">
			<stop stop-color="#F96C7F" />
			<stop offset="1" stop-color="#B42A3D" />
		</linearGradient>
		<linearGradient id="paint2_linear_90_403" x1="-7.18624" y1="-7.69867" x2="58.8671" y2="12.6184" gradientUnits="userSpaceOnUse">
			<stop stop-color="#F96C7F" />
			<stop offset="1" stop-color="#B42A3D" />
		</linearGradient>
		<linearGradient id="paint3_linear_90_403" x1="13.2532" y1="18.7054" x2="42.8109" y2="28.4782" gradientUnits="userSpaceOnUse">
			<stop stop-color="#F96C7F" />
			<stop offset="1" stop-color="#B42A3D" />
		</linearGradient>
		<clipPath id="clip0_90_403">
			<rect width="40" height="40" fill="white" />
		</clipPath>
	</defs>
</svg>
